<?xml version="1.0" standalone="no"?>
<!DOCTYPE svg PUBLIC "-//W3C//DTD SVG 20010904//EN"
 "http://www.w3.org/TR/2001/REC-SVG-20010904/DTD/svg10.dtd">
<svg version="1.0" xmlns="http://www.w3.org/2000/svg"
 width="500.000000pt" height="289.000000pt" viewBox="0 0 500.000000 289.000000"
 preserveAspectRatio="xMidYMid meet">
<style>
        path {
            fill: black;
        }
        @media (prefers-color-scheme: dark) {
            path { fill: white; }
        }
    </style>
<g transform="translate(0.000000,289.000000) scale(0.100000,-0.100000)"
fill="#000000" stroke="none">
<path d="M1990 2661 c-15 -28 -12 -46 8 -64 26 -23 69 -22 82 3 10 19 21 20
398 20 l387 0 120 -120 c66 -66 126 -118 132 -115 20 7 15 -2 -14 -30 l-28
-25 165 0 165 0 140 -140 139 -139 265 -1 c252 0 265 -1 278 -20 16 -22 62
-27 81 -8 21 21 14 66 -12 83 -26 17 -54 11 -74 -17 -12 -17 -33 -18 -264 -18
l-251 0 -147 145 -146 145 -125 0 -124 0 -145 145 -144 144 -390 1 c-334 0
-391 2 -406 15 -24 22 -77 19 -90 -4z m68 -3 c17 -17 15 -43 -4 -59 -31 -26
-70 25 -44 56 15 18 32 19 48 3z m2243 -579 c9 -18 7 -25 -9 -41 -16 -16 -23
-18 -41 -9 -23 13 -28 40 -9 59 19 19 46 14 59 -9z"/>
<path d="M2760 2530 c-19 -19 -33 -20 -413 -20 l-393 0 -48 -49 c-31 -31 -46
-54 -41 -62 6 -8 4 -10 -5 -4 -8 5 -41 -22 -99 -79 l-86 -86 -479 -1 c-421 0
-480 1 -495 15 -21 19 -62 21 -79 4 -15 -15 -15 -61 0 -76 19 -19 65 -14 81 8
14 20 25 20 368 20 l353 0 127 -126 c72 -72 132 -124 138 -120 6 4 9 2 6 -6
-3 -7 36 -54 90 -108 70 -69 95 -89 95 -75 0 13 -74 94 -200 220 -110 110
-200 203 -200 207 0 5 46 8 103 8 l102 0 140 140 140 140 392 0 c246 0 393 -4
393 -10 0 -12 40 -34 47 -26 3 3 -4 14 -17 24 -29 24 -20 62 15 62 34 0 48
-31 29 -58 -16 -23 -6 -30 14 -10 29 29 2 88 -39 88 -10 0 -28 -9 -39 -20z
m-2076 -296 c9 -8 16 -19 16 -24 0 -9 -28 -40 -36 -40 -3 0 -14 5 -25 10 -24
13 -25 46 -1 59 23 14 28 14 46 -5z"/>
<path d="M2537 2382 c-22 -24 -21 -55 1 -75 25 -22 48 -21 72 3 19 19 33 20
239 20 180 0 221 3 231 15 10 13 -17 14 -219 15 -218 0 -232 1 -251 20 -25 25
-52 26 -73 2z m69 -28 c8 -31 -6 -47 -37 -42 -43 6 -38 68 5 68 19 0 27 -7 32
-26z"/>
<path d="M2240 2249 c-37 -15 -60 -49 -60 -92 0 -51 15 -76 57 -93 46 -20 86
-10 117 27 l25 29 457 0 458 1 136 -135 135 -135 510 -1 511 0 29 30 29 30
-494 0 -494 0 -25 -22 -26 -23 19 23 c19 22 19 22 -7 22 -19 0 -58 32 -163
135 l-137 136 -116 -1 c-64 -1 -276 -1 -472 -1 -345 1 -357 2 -362 20 -5 22
-63 61 -87 60 -8 0 -26 -5 -40 -10z"/>
<path d="M1916 2034 c-30 -30 -10 -94 30 -94 8 0 14 5 14 10 0 6 -7 10 -15 10
-21 0 -35 31 -24 52 13 24 45 23 62 -3 9 -12 17 -16 21 -10 9 14 -30 51 -53
51 -11 0 -27 -7 -35 -16z"/>
<path d="M2070 1995 c-11 -13 -5 -15 49 -15 48 0 61 3 61 15 0 11 -12 15 -49
15 -31 0 -53 -5 -61 -15z"/>
<path d="M2230 1995 c0 -13 42 -15 317 -15 l317 0 92 -90 c64 -63 98 -90 115
-90 20 0 6 18 -83 105 l-107 105 -325 0 c-283 0 -326 -2 -326 -15z"/>
<path d="M947 1972 c-22 -24 -21 -55 1 -75 25 -23 55 -21 77 3 17 18 31 20
163 20 127 0 143 2 132 15 -10 12 -40 15 -146 15 -121 0 -136 2 -154 20 -25
25 -52 26 -73 2z"/>
<path d="M4873 1983 c-22 -4 -73 -49 -73 -64 0 -5 -33 -9 -73 -9 -68 0 -75 -2
-102 -30 l-29 -30 102 0 c91 0 102 -2 112 -20 28 -53 116 -62 158 -17 69 74 5
189 -95 170z"/>
<path d="M1330 1935 c8 -9 30 -15 59 -15 46 0 48 -1 166 -120 l120 -120 103 0
c84 0 102 3 102 15 0 12 -17 15 -93 15 l-93 0 -54 55 c-30 30 -61 55 -69 55
-8 0 -11 3 -7 7 3 4 -19 33 -51 65 l-57 58 -69 0 c-61 0 -68 -2 -57 -15z"/>
<path d="M2217 1862 c-21 -23 -22 -56 -1 -76 20 -21 34 -20 64 4 23 18 42 20
276 20 215 0 253 2 258 15 5 13 -27 15 -252 15 -246 0 -258 1 -270 20 -15 25
-54 26 -75 2z"/>
<path d="M2896 1825 c5 -11 21 -15 61 -15 48 0 54 2 43 15 -8 10 -30 15 -61
15 -39 0 -47 -3 -43 -15z"/>
<path d="M3090 1825 c10 -12 36 -15 114 -15 l101 0 120 -120 119 -119 205 -1
c191 0 206 -1 226 -20 12 -11 31 -20 42 -20 50 0 71 66 31 94 -30 21 -44 20
-68 -4 -18 -18 -34 -20 -221 -21 l-202 -1 -52 52 c-34 34 -58 50 -66 45 -8 -6
-10 -4 -4 4 5 9 -15 35 -56 77 l-63 64 -119 0 c-105 0 -118 -2 -107 -15z"/>
<path d="M3110 1762 c0 -17 58 -81 208 -230 l207 -207 -100 -3 -100 -3 -93
-92 c-51 -50 -90 -97 -88 -104 3 -7 -1 -10 -7 -7 -7 2 -32 -16 -57 -41 l-44
-45 -132 0 c-105 0 -134 -3 -144 -15 -11 -13 5 -15 136 -15 l149 0 145 145
145 145 313 0 c248 0 312 3 306 13 -6 10 -4 10 7 0 18 -18 64 -16 79 2 11 13
-15 15 -226 15 l-239 0 -233 232 c-181 182 -232 228 -232 210z"/>
<path d="M2760 1690 c0 -51 6 -60 28 -38 23 23 9 88 -20 88 -4 0 -8 -22 -8
-50z"/>
<path d="M47 1719 c-29 -17 -49 -68 -43 -105 8 -39 57 -84 92 -84 35 0 78 24
98 54 l16 26 217 0 217 0 -29 30 -29 30 -190 0 -191 0 -28 30 c-23 24 -37 30
-70 30 -23 0 -50 -5 -60 -11z"/>
<path d="M2668 1712 c-23 -2 -38 -8 -38 -17 0 -7 15 -15 38 -17 43 -6 45 -5
40 19 -2 14 -11 17 -40 15z"/>
<path d="M1950 1694 c0 -26 92 -117 114 -112 12 2 -1 20 -49 68 -50 50 -65 60
-65 44z"/>
<path d="M2000 1695 c10 -11 36 -15 111 -15 81 0 99 3 99 15 0 12 -19 15 -111
15 -98 0 -110 -2 -99 -15z"/>
<path d="M2260 1695 c0 -11 11 -15 39 -15 22 0 44 6 51 15 11 13 6 15 -39 15
-39 0 -51 -4 -51 -15z"/>
<path d="M2390 1695 c0 -10 11 -15 35 -15 24 0 35 5 35 15 0 10 -11 15 -35 15
-24 0 -35 -5 -35 -15z"/>
<path d="M2527 1703 c-15 -14 -6 -24 20 -21 34 4 43 28 11 28 -14 0 -28 -3
-31 -7z"/>
<path d="M625 1640 l29 -30 376 0 375 0 135 -135 135 -135 118 0 c92 0 117 3
111 13 -6 10 -4 10 7 0 10 -10 96 -13 359 -13 l345 0 28 -35 c64 -80 179 -41
179 61 0 87 -107 127 -170 64 l-30 -30 -377 0 c-358 0 -377 -1 -364 -17 13
-17 13 -17 -7 0 -16 13 -39 17 -95 17 l-74 0 -137 137 c-129 128 -139 137
-159 125 -12 -8 -18 -9 -14 -3 4 8 -112 11 -396 11 l-403 0 29 -30z"/>
<path d="M3015 1560 c-18 -20 -27 -21 -472 -18 -249 2 -453 1 -453 -3 0 -27
36 -29 460 -29 424 0 437 -1 455 -20 20 -22 64 -27 83 -8 22 22 14 62 -17 81
-36 21 -34 21 -56 -3z m65 -19 c12 -23 5 -47 -16 -55 -21 -8 -42 3 -49 25 -14
42 44 68 65 30z"/>
<path d="M697 1492 c-22 -24 -21 -55 1 -75 25 -23 59 -21 74 3 7 11 19 20 27
20 9 0 2 13 -19 35 -38 39 -59 44 -83 17z m68 -21 c9 -28 -5 -51 -31 -51 -29
0 -46 28 -33 52 13 24 56 23 64 -1z"/>
<path d="M810 1455 c17 -20 358 -22 379 -2 11 10 13 10 7 0 -5 -10 6 -13 46
-13 l53 0 143 -140 142 -140 124 0 c102 0 128 -3 141 -16 15 -15 18 -15 41 6
13 13 24 19 24 14 0 -5 93 -8 228 -6 219 3 229 2 247 -18 20 -22 64 -27 83 -8
20 20 14 65 -10 82 -30 22 -41 20 -71 -9 l-25 -26 -378 1 -378 0 -146 145
-145 145 -259 0 c-229 0 -257 -2 -246 -15z m1644 -261 c16 -16 9 -45 -14 -59
-15 -9 -50 14 -50 33 0 38 37 53 64 26z"/>
<path d="M4298 1341 c-12 -19 -23 -21 -124 -21 -87 0 -114 -3 -124 -15 -11
-13 2 -15 111 -15 112 0 125 -2 146 -22 44 -41 107 8 79 63 -16 33 -70 39 -88
10z m77 -21 c14 -44 -44 -69 -65 -29 -9 15 -8 24 1 35 18 21 57 18 64 -6z"/>
<path d="M1875 1131 c-3 -5 51 -66 120 -135 l126 -126 130 0 c116 0 130 2 119
15 -10 12 -37 15 -124 15 l-111 0 -120 120 c-66 66 -123 120 -127 120 -4 0 -9
-4 -13 -9z"/>
<path d="M2200 1077 c0 -3 15 -21 33 -41 l33 -36 236 0 c197 0 238 2 248 15
11 13 -16 15 -238 15 -213 0 -251 2 -262 16 -14 15 -50 38 -50 31z"/>
<path d="M2162 1058 c-7 -7 -12 -24 -12 -38 0 -14 5 -31 12 -38 24 -24 88 -9
88 22 0 5 -9 1 -21 -10 -15 -14 -24 -16 -37 -8 -19 12 -29 64 -13 64 6 0 11 5
11 10 0 14 -13 13 -28 -2z"/>
<path d="M2925 920 c-16 -18 -31 -20 -150 -20 -106 0 -135 -3 -145 -15 -11
-13 5 -15 132 -15 132 0 146 -2 163 -20 23 -25 57 -26 78 -2 22 24 21 55 -1
75 -25 23 -55 21 -77 -3z m70 -35 c0 -27 -3 -30 -30 -30 -21 0 -31 5 -33 18
-6 33 6 49 35 45 24 -3 28 -8 28 -33z"/>
<path d="M2380 885 c10 -12 37 -15 120 -15 83 0 110 3 120 15 11 13 -3 15
-120 15 -117 0 -131 -2 -120 -15z"/>
<path d="M385 581 c-6 -11 -85 -238 -85 -246 0 -3 11 -5 24 -5 19 0 26 7 31
30 6 29 9 30 60 30 51 0 54 -1 60 -30 5 -23 12 -30 31 -30 13 0 24 3 24 8 0 4
-19 62 -42 130 -40 116 -43 122 -69 122 -15 0 -30 -4 -34 -9z m45 -76 c5 -14
13 -37 16 -50 6 -23 3 -25 -31 -25 -34 0 -37 2 -31 25 10 38 25 75 31 75 3 0
10 -11 15 -25z"/>
<path d="M912 577 c-72 -42 -81 -175 -15 -227 30 -24 85 -26 103 -5 7 8 16 15
21 15 5 0 9 -7 9 -15 0 -8 9 -15 20 -15 18 0 20 7 20 70 l0 70 -55 0 c-48 0
-55 -2 -55 -20 0 -16 7 -20 30 -20 22 0 30 -5 30 -18 0 -25 -20 -42 -50 -42
-43 0 -62 22 -67 76 -4 40 -1 54 17 77 25 31 63 36 99 11 20 -14 25 -15 37 -2
13 12 12 17 -6 33 -25 23 -107 30 -138 12z"/>
<path d="M1427 583 c-4 -3 -7 -62 -7 -130 l0 -123 25 0 25 0 0 130 c0 119 -1
130 -18 130 -10 0 -22 -3 -25 -7z"/>
<path d="M1837 583 c-4 -3 -7 -62 -7 -130 l0 -123 85 0 c78 0 85 2 85 20 0 18
-7 20 -60 20 l-60 0 0 110 c0 100 -2 110 -18 110 -10 0 -22 -3 -25 -7z"/>
<path d="M2330 460 l0 -130 85 0 c78 0 85 2 85 20 0 18 -7 20 -60 20 l-60 0 0
40 0 40 50 0 c38 0 50 4 50 15 0 11 -12 15 -50 15 l-50 0 0 35 0 35 60 0 c53
0 60 2 60 20 0 18 -7 20 -85 20 l-85 0 0 -130z"/>
<path d="M2840 460 l0 -130 25 0 c24 0 25 3 25 55 l0 55 50 0 c38 0 50 4 50
15 0 11 -12 15 -50 15 l-50 0 0 40 0 40 55 0 c48 0 55 2 55 20 0 18 -7 20 -80
20 l-80 0 0 -130z"/>
<path d="M3340 460 l0 -130 80 0 c73 0 80 2 80 20 0 18 -7 20 -55 20 l-55 0 0
110 0 110 -25 0 -25 0 0 -130z"/>
<path d="M3894 580 c-41 -16 -64 -59 -64 -116 0 -93 36 -134 119 -134 31 0 49
7 73 29 27 24 32 36 35 87 3 47 0 66 -16 92 -30 47 -91 65 -147 42z m96 -50
c15 -15 20 -33 20 -70 0 -59 -24 -90 -68 -90 -44 0 -67 33 -66 93 0 39 5 54
23 69 30 24 66 23 91 -2z"/>
<path d="M4384 573 c3 -10 17 -69 32 -131 25 -111 26 -113 52 -110 25 3 29 10
47 81 11 42 22 77 26 77 4 0 10 -12 13 -27 4 -16 14 -52 22 -81 14 -49 17 -53
41 -50 25 3 28 9 54 123 34 145 33 135 9 135 -24 0 -23 1 -45 -102 -18 -82
-28 -91 -39 -34 -16 85 -37 136 -55 136 -15 0 -23 -17 -41 -90 -12 -49 -26
-88 -30 -85 -4 3 -11 22 -15 42 -23 126 -26 133 -52 133 -19 0 -23 -4 -19 -17z"/>
</g>
</svg>
